<svg width="18" height="18" viewBox="0 0 18 18" fill="none" xmlns="http://www.w3.org/2000/svg">
<path d="M9 0.75C4.44365 0.75 0.75 4.44365 0.75 9C0.75 10.5669 1.18632 12.0299 1.94336 13.2764L2.11621 13.5615L2.02051 13.8809L1.10449 16.9326L4.3291 16.082L4.62695 16.0039L4.89453 16.1572C6.10297 16.852 7.50381 17.25 9 17.25C13.5563 17.25 17.25 13.5563 17.25 9C17.25 4.44365 13.5563 0.75 9 0.75Z" stroke="black" stroke-width="1.5"/>
<path d="M10.917 10.5301C10.783 10.4297 10.6063 10.4114 10.4538 10.48L9.68135 10.829C9.50842 10.9071 9.30743 10.8728 9.17208 10.74C8.93811 10.5103 8.56302 10.126 8.24421 9.72552C7.9254 9.32504 7.63498 8.87334 7.46362 8.59383C7.36449 8.43214 7.37615 8.22857 7.49108 8.07757L8.00431 7.40299C8.10576 7.2698 8.12666 7.092 8.0588 6.93887L7.20311 5.0049C7.12011 4.81782 6.92551 4.70832 6.72233 4.73432C6.52501 4.7592 6.26277 4.84476 5.97172 5.07678C5.0605 5.80216 4.46917 7.13304 7.19705 10.5598C9.92494 13.9865 11.3541 13.7089 12.2657 12.9832C12.5575 12.7509 12.6994 12.5141 12.7683 12.3271C12.8384 12.1352 12.7766 11.9226 12.6132 11.8002C12.2051 11.4948 11.325 10.8358 10.917 10.5301Z" fill="black"/>
</svg>
