<svg width="18" height="18" viewBox="0 0 18 18" fill="none" xmlns="http://www.w3.org/2000/svg">
<path d="M13.1394 2L6.14711 8.99227C6.02816 9.11122 5.94076 9.25796 5.89282 9.41921L5.02164 12.3495C4.9072 12.7345 5.26553 13.0928 5.65048 12.9784L8.58079 12.1072C8.74204 12.0592 8.88878 11.9718 9.00773 11.8529L16 4.86062M13.1394 2L13.695 1.44434C14.2875 0.851887 15.2481 0.851886 15.8405 1.44434L16.5557 2.15949C17.1481 2.75195 17.1481 3.71251 16.5557 4.30496L16 4.86062M13.1394 2H3C1.89543 2 1 2.89543 1 4V15C1 16.1046 1.89543 17 3 17H14C15.1046 17 16 16.1046 16 15V4.86062" stroke="black" stroke-width="1.5"/>
</svg>
