<svg width="236" height="127" viewBox="0 0 236 127" fill="none" xmlns="http://www.w3.org/2000/svg">
<path d="M0 90.3792V87.8016C0 68.2413 16.4683 53.4009 35.9842 51.8316C35.9842 28.4874 48.9029 11.3209 70.8 2.80896C94.6304 -6.45445 119.402 9.24227 125.945 20.2141C125.945 20.2141 151.414 12.9773 168.705 24.1826C185.996 35.3878 190.202 51.8316 190.202 51.8316H198.38C219.157 51.8316 236 68.6587 236 89.4158C236 110.173 219.157 127 198.38 127H132.721V93.8437L146.564 93.7555L118.145 65.3637L89.7267 93.7555L103.747 93.8437V127H36.6555C16.4112 127 0 110.604 0 90.3792Z" fill="url(#paint0_linear_817_312)"/>
<path d="M70.8906 3.04199C82.7307 -1.56051 94.8129 0.0342419 104.76 4.1543C114.714 8.27737 122.494 14.914 125.73 20.3418L125.829 20.5068L126.014 20.4541H126.015C126.015 20.4539 126.016 20.4535 126.018 20.4531C126.02 20.4523 126.025 20.4508 126.03 20.4492C126.042 20.4459 126.061 20.4411 126.085 20.4346C126.133 20.4214 126.204 20.4018 126.299 20.377C126.488 20.3271 126.769 20.2555 127.132 20.168C127.858 19.9928 128.917 19.7547 130.241 19.5039C132.89 19.0022 136.603 18.4497 140.853 18.2461C149.36 17.8386 159.988 18.8316 168.569 24.3926C177.175 29.9694 182.524 36.8494 185.722 42.335C187.321 45.0778 188.381 47.4715 189.041 49.1777C189.371 50.0307 189.602 50.7119 189.749 51.1787C189.823 51.412 189.876 51.592 189.91 51.7129C189.927 51.7732 189.94 51.8193 189.948 51.8496C189.952 51.8644 189.955 51.8755 189.957 51.8828C189.958 51.8865 189.959 51.8899 189.959 51.8916L189.96 51.8936L190.008 52.082H198.38C219.019 52.082 235.75 68.7972 235.75 89.416C235.75 110.035 219.019 126.75 198.38 126.75H132.971V94.0918L146.565 94.0059L147.164 94.002L146.74 93.5791L118.321 65.1865L118.145 65.0107L117.969 65.1865L89.5498 93.5791L89.127 94.002L89.7256 94.0059L103.497 94.0918V126.75H36.6553C16.5489 126.75 0.25 110.465 0.25 90.3789V87.8018C0.25 68.3965 16.592 53.6422 36.0039 52.0811L36.2344 52.0625V51.832C36.2344 28.6008 49.0801 11.5203 70.8906 3.04199Z" stroke="#FFDBD8" stroke-opacity="0.5" stroke-width="1"/>
<defs>
<linearGradient id="paint0_linear_817_312" x1="-5.222e-06" y1="127" x2="224.106" y2="159.457" gradientUnits="userSpaceOnUse">
<stop stop-color="#FC796B"/>
<stop offset="1" stop-color="#8053DB"/>
</linearGradient>
</defs>
</svg>
