<svg width="236" height="127" viewBox="0 0 236 127" fill="none" xmlns="http://www.w3.org/2000/svg">
<path d="M0 90.3792V87.8016C0 68.2413 16.4683 53.4009 35.9842 51.8316C35.9842 28.4874 48.9029 11.3209 70.8 2.80896C94.6304 -6.45445 119.402 9.24227 125.945 20.2141C125.945 20.2141 151.414 12.9773 168.705 24.1826C185.996 35.3878 190.202 51.8316 190.202 51.8316H198.38C219.157 51.8316 236 68.6587 236 89.4158C236 110.173 219.157 127 198.38 127H132.721V93.8437L146.564 93.7555L118.145 65.3637L89.7267 93.7555L103.747 93.8437V127H36.6555C16.4112 127 0 110.604 0 90.3792Z" fill="url(#paint0_linear_817_312)"/>
<path d="M70.9814 3.27539C82.7464 -1.29787 94.7599 0.282414 104.664 4.38477C114.583 8.49319 122.313 15.1 125.516 20.4697L125.712 20.7998L126.082 20.6953L126.085 20.6943C126.088 20.6936 126.092 20.692 126.098 20.6904C126.109 20.6872 126.127 20.6822 126.15 20.6758C126.198 20.6629 126.269 20.6438 126.362 20.6191C126.55 20.5697 126.829 20.4983 127.19 20.4111C127.913 20.2369 128.968 20 130.288 19.75C132.929 19.2499 136.629 18.699 140.865 18.4961C149.352 18.0896 159.916 19.0835 168.433 24.6025C176.999 30.1536 182.323 37.0012 185.506 42.4609C187.097 45.1907 188.152 47.5719 188.809 49.2676C189.137 50.1153 189.365 50.7918 189.511 51.2539C189.584 51.4848 189.636 51.6625 189.67 51.7812C189.687 51.8404 189.699 51.8848 189.707 51.9141C189.711 51.9284 189.713 51.9394 189.715 51.9463C189.716 51.9497 189.716 51.9526 189.717 51.9541L189.718 51.9551L189.813 52.332H198.38C218.881 52.332 235.5 68.9355 235.5 89.416C235.5 109.897 218.881 126.5 198.38 126.5H133.221V94.3398L146.567 94.2559L147.765 94.248L146.917 93.4014L118.498 65.0098L118.145 64.6572L117.792 65.0098L89.373 93.4014L88.5264 94.248L89.7236 94.2559L103.247 94.3398V126.5H36.6553C16.6868 126.5 0.5 110.327 0.5 90.3789V87.8018C0.5 68.5513 16.7161 53.8827 36.0244 52.3301L36.4844 52.293V51.832C36.4844 28.7137 49.2576 11.72 70.9814 3.27539Z" stroke="#FFDBD8" stroke-opacity="0.8"/>
<defs>
<linearGradient id="paint0_linear_817_312" x1="-5.222e-06" y1="127" x2="224.106" y2="159.457" gradientUnits="userSpaceOnUse">
<stop stop-color="#FC796B"/>
<stop offset="1" stop-color="#8053DB"/>
</linearGradient>
</defs>
</svg>
