<svg width="18" height="18" viewBox="0 0 18 18" fill="none" xmlns="http://www.w3.org/2000/svg">
<rect x="0.75" y="0.75" width="16.5" height="16.5" rx="2.25" stroke="black" stroke-width="1.5"/>
<path d="M4.5 4.47314C4.49561 4.21642 4.69826 4.00475 4.95299 4C5.21241 3.99516 5.42755 4.2117 5.42308 4.47314C5.41868 4.73018 5.20805 4.93499 4.95299 4.93023C4.70269 4.92556 4.50432 4.72538 4.5 4.47314Z" fill="black"/>
<path d="M4.95299 7.29591V14M8.71368 7.29591V9.41299M8.71368 14V9.41299M8.71368 9.41299C8.71368 9.41299 10.0812 7.29591 11.7906 7.64876C13.5 8.0016 13.5 9.41299 13.5 9.41299V14M4.95299 4C4.69826 4.00475 4.49561 4.21642 4.5 4.47314C4.50432 4.72538 4.70269 4.92556 4.95299 4.93023C5.20805 4.93499 5.41868 4.73018 5.42308 4.47314C5.42755 4.2117 5.21241 3.99516 4.95299 4Z" stroke="black" stroke-width="1.5" stroke-linecap="round"/>
</svg>
