<svg width="90" height="24" viewBox="0 0 90 24" fill="none" xmlns="http://www.w3.org/2000/svg">
<path fill-rule="evenodd" clip-rule="evenodd" d="M31.7819 22.7697C32.6898 23.3342 33.715 23.6165 34.8576 23.6165C36.0002 23.6165 37.0254 23.3342 37.9333 22.7697C38.4928 22.4121 38.978 21.98 39.3889 21.4734V22.3463C39.3889 22.6913 39.4985 22.9814 39.7176 23.2166C39.9524 23.4362 40.2419 23.5459 40.5863 23.5459C40.9306 23.5459 41.2124 23.4362 41.4315 23.2166C41.6663 22.9814 41.7837 22.6913 41.7837 22.3463V17.1008C41.7837 15.862 41.4941 14.7486 40.915 13.7606C40.3515 12.7727 39.5846 11.9964 38.6141 11.4319C37.6437 10.8517 36.548 10.5616 35.3272 10.5616C34.1063 10.5616 33.0028 10.8517 32.0167 11.4319C31.0463 11.9964 30.2715 12.7727 29.6924 13.7606C29.1289 14.7486 28.8472 15.862 28.8472 17.1008C28.8472 18.3397 29.1054 19.453 29.622 20.441C30.1541 21.4132 30.8741 22.1895 31.7819 22.7697ZM37.4637 20.935C36.8376 21.3113 36.1254 21.4995 35.3272 21.4995C34.5446 21.4995 33.8324 21.3113 33.1906 20.935C32.5646 20.5429 32.0637 20.0176 31.688 19.359C31.328 18.6846 31.148 17.9319 31.148 17.1008C31.148 16.254 31.328 15.5013 31.688 14.8427C32.0637 14.1683 32.5646 13.643 33.1906 13.2667C33.8324 12.8746 34.5446 12.6786 35.3272 12.6786C36.1254 12.6786 36.8376 12.8746 37.4637 13.2667C38.0898 13.643 38.5828 14.1683 38.9428 14.8427C39.3028 15.5013 39.4828 16.254 39.4828 17.1008C39.4828 17.9319 39.3028 18.6846 38.9428 19.359C38.5828 20.0176 38.0898 20.5429 37.4637 20.935ZM44.4903 23.413C44.7087 23.6075 44.9998 23.7047 45.3637 23.7047C45.7276 23.7047 46.0188 23.6075 46.2371 23.413C46.4676 23.2064 46.5828 22.9391 46.5828 22.6109V15.6836C46.5828 14.6506 46.8618 13.8606 47.4198 13.3137C47.9778 12.7668 48.7906 12.4934 49.8581 12.4934C50.9255 12.4934 51.7383 12.7668 52.2963 13.3137C52.8543 13.8606 53.1333 14.6506 53.1333 15.6836V22.6109C53.1333 22.9391 53.2424 23.2064 53.4608 23.413C53.6913 23.6075 53.9885 23.7047 54.3524 23.7047C54.7163 23.7047 55.0074 23.6075 55.2258 23.413C55.4441 23.2186 55.5533 22.9512 55.5533 22.6109V15.7383C55.5533 14.1219 55.0499 12.858 54.0431 11.9465C53.0362 11.035 51.6412 10.5792 49.8581 10.5792C48.0749 10.5792 46.6799 11.035 45.6731 11.9465C44.6662 12.858 44.1628 14.1219 44.1628 15.7383V22.6109C44.1628 22.9512 44.272 23.2186 44.4903 23.413ZM61.0981 22.7697C62.0842 23.3342 63.1876 23.6165 64.4085 23.6165C65.6294 23.6165 66.725 23.3342 67.6955 22.7697C68.6659 22.1895 69.4329 21.4054 69.9963 20.4175C70.5755 19.4295 70.865 18.3161 70.865 17.0773V6.35107C70.865 5.99039 70.7555 5.70028 70.5363 5.48074C70.3172 5.2612 70.0276 5.15143 69.6676 5.15143C69.3233 5.15143 69.0337 5.2612 68.7989 5.48074C68.5798 5.70028 68.4703 5.99039 68.4703 6.35107V12.7021C67.9381 12.0435 67.2807 11.526 66.4981 11.1496C65.7155 10.7576 64.8624 10.5616 63.9389 10.5616C62.7963 10.5616 61.7711 10.8517 60.8633 11.4319C59.9555 11.9964 59.2355 12.7727 58.7033 13.7606C58.1868 14.7329 57.9285 15.8384 57.9285 17.0773C57.9285 18.3161 58.2103 19.4295 58.7737 20.4175C59.3529 21.4054 60.1276 22.1895 61.0981 22.7697ZM66.545 20.935C65.9189 21.3113 65.2068 21.4995 64.4085 21.4995C63.6259 21.4995 62.9137 21.3113 62.272 20.935C61.6459 20.5429 61.145 20.0097 60.7694 19.3354C60.4094 18.6611 60.2294 17.9084 60.2294 17.0773C60.2294 16.2305 60.4094 15.4778 60.7694 14.8191C61.145 14.1605 61.6459 13.643 62.272 13.2667C62.9137 12.8746 63.6259 12.6786 64.4085 12.6786C65.2068 12.6786 65.9189 12.8746 66.545 13.2667C67.1711 13.643 67.6642 14.1605 68.0242 14.8191C68.3842 15.4778 68.5642 16.2305 68.5642 17.0773C68.5642 17.9084 68.3842 18.6611 68.0242 19.3354C67.6642 20.0097 67.1711 20.5429 66.545 20.935ZM75.6575 23.1931C75.8923 23.4127 76.1819 23.5224 76.5262 23.5224C76.8862 23.5224 77.1758 23.4127 77.3949 23.1931C77.6141 22.9579 77.7236 22.6678 77.7236 22.3228V11.8553C77.7236 11.4946 77.6141 11.2045 77.3949 10.985C77.1758 10.7654 76.8862 10.6557 76.5262 10.6557C76.1819 10.6557 75.8923 10.7654 75.6575 10.985C75.4384 11.2045 75.3288 11.4946 75.3288 11.8553V22.3228C75.3288 22.6678 75.4384 22.9579 75.6575 23.1931ZM75.4228 8.11525C75.7358 8.4132 76.1036 8.56218 76.5262 8.56218C76.9488 8.56218 77.3088 8.4132 77.6062 8.11525C77.9193 7.80162 78.0758 7.4331 78.0758 7.0097C78.0758 6.58629 77.9193 6.22562 77.6062 5.92767C77.3088 5.61404 76.9488 5.45722 76.5262 5.45722C76.1036 5.45722 75.7358 5.61404 75.4228 5.92767C75.1254 6.22562 74.9767 6.58629 74.9767 7.0097C74.9767 7.4331 75.1254 7.80162 75.4228 8.11525ZM84.7379 22.9344C85.364 23.3264 86.0684 23.5224 86.851 23.5224H87.2736C87.6806 23.5224 88.0093 23.4127 88.2597 23.1931C88.5258 22.9736 88.6588 22.6913 88.6588 22.3463C88.6588 22.0013 88.5571 21.719 88.3536 21.4995C88.1658 21.28 87.931 21.1702 87.6493 21.1702H86.851C86.3501 21.1702 85.9275 20.9585 85.5832 20.5351C85.2388 20.1117 85.0666 19.5863 85.0666 18.9591V13.149H87.0623C87.391 13.149 87.6571 13.055 87.8606 12.8668C88.064 12.6786 88.1658 12.4434 88.1658 12.1611C88.1658 11.8475 88.064 11.5966 87.8606 11.4084C87.6571 11.2202 87.391 11.1261 87.0623 11.1261H85.0666V7.73889C85.0666 7.3939 84.9571 7.11163 84.7379 6.89209C84.5188 6.67254 84.2371 6.56277 83.8927 6.56277C83.5484 6.56277 83.2666 6.67254 83.0475 6.89209C82.8284 7.11163 82.7188 7.3939 82.7188 7.73889V11.1261H81.6388C81.3101 11.1261 81.044 11.2202 80.8406 11.4084C80.6371 11.5966 80.5353 11.8475 80.5353 12.1611C80.5353 12.4434 80.6371 12.6786 80.8406 12.8668C81.044 13.055 81.3101 13.149 81.6388 13.149H82.7188V18.9591C82.7188 19.8216 82.8988 20.5978 83.2588 21.2878C83.6188 21.9778 84.1119 22.5266 84.7379 22.9344Z" fill="url(#paint0_linear_814_266)"/>
<path d="M26.8115 22.5423C25.608 22.5423 23.8176 22.5423 22.1868 22.5423C20.0257 22.5423 18.2739 20.7909 18.2739 18.6257C18.2739 16.1097 18.2739 12.282 18.2739 6.86072" stroke="url(#paint1_linear_814_266)" stroke-width="2.54826" stroke-linecap="round"/>
<path d="M26.8115 22.5423C25.608 22.5423 23.8176 22.5423 22.1868 22.5423C20.0257 22.5423 18.2739 20.7909 18.2739 18.6257C18.2739 16.1097 18.2739 12.282 18.2739 6.86072" stroke="#FC796B" stroke-width="2.54826" stroke-linecap="round"/>
<path d="M1.95654 22.5423C8.80437 22.5423 12.8063 18.3336 13.6957 7.84079" stroke="url(#paint2_linear_814_266)" stroke-width="2.54826" stroke-linecap="round"/>
<path d="M14.6741 1.9602L15.4095 3.4339C15.529 3.67324 15.8474 3.72501 16.0362 3.53579L18.5871 0.980103" stroke="#FC796B" stroke-width="1.9602" stroke-linecap="round"/>
<defs>
<linearGradient id="paint0_linear_814_266" x1="27.3915" y1="29.403" x2="85.9449" y2="40.615" gradientUnits="userSpaceOnUse">
<stop stop-color="#FC796B"/>
<stop offset="1" stop-color="#8053DB"/>
</linearGradient>
<linearGradient id="paint1_linear_814_266" x1="5.28974" y1="22.5423" x2="25.8482" y2="25.0554" gradientUnits="userSpaceOnUse">
<stop stop-color="#FC796B"/>
<stop offset="1" stop-color="#8053DB"/>
</linearGradient>
<linearGradient id="paint2_linear_814_266" x1="-49.8913" y1="61.7463" x2="25.6055" y2="28.446" gradientUnits="userSpaceOnUse">
<stop stop-color="#8053DB"/>
<stop offset="1" stop-color="#FC796B"/>
</linearGradient>
</defs>
</svg>
