<svg width="19" height="22" viewBox="0 0 19 22" fill="#34C759" xmlns="http://www.w3.org/2000/svg">
<path d="M14.2928 14.648C13.9573 14.3943 13.5149 14.3481 13.133 14.5215L11.1987 15.4028C10.7657 15.6002 10.2624 15.5136 9.92345 15.178C9.33758 14.598 8.39834 13.6273 7.60004 12.6159C6.80173 11.6044 6.07449 10.4635 5.6454 9.75755C5.39719 9.34915 5.42636 8.83502 5.71416 8.45363L6.99931 6.74983C7.25334 6.41343 7.30569 5.96437 7.13576 5.57761L4.99306 0.692988C4.78525 0.220464 4.29796 -0.0560872 3.78918 0.00958518C3.29508 0.0724144 2.63842 0.288516 1.90962 0.874514C-0.372111 2.70663 -1.85284 6.06803 4.97791 14.7229C11.8087 23.3778 15.3874 22.6767 17.6701 20.8438C18.4008 20.2571 18.756 19.6591 18.9285 19.1867C19.1041 18.702 18.9493 18.165 18.5402 17.8558C17.5184 17.0846 15.3145 15.42 14.2928 14.648Z"/>
</svg>
