<svg width="18" height="18" viewBox="0 0 18 18" fill="none" xmlns="http://www.w3.org/2000/svg">
<path d="M2.51786 9C2.51786 12.2718 4.47243 14.4911 7.66199 15.0167C7.97591 15.0685 8.19261 14.7487 8.03312 14.4868C7.82675 14.1478 8.2368 13.7731 8.58548 13.982L11.1527 15.5202C11.5201 15.7403 11.519 16.2495 11.1506 16.4681L8.67969 17.9348C8.29849 18.1611 7.85133 17.7546 8.07269 17.383C8.22956 17.1197 8.04317 16.789 7.72833 16.7427C3.77575 16.1619 0.75 12.9166 0.75 9C0.75 6.21203 1.92857 4.01799 4.28571 2.84373C4.45772 2.74029 4.70101 2.74334 4.875 2.84373C5.25655 3.0639 5.22362 3.13852 4.875 3.40339C3.40179 4.52272 2.51786 6.65359 2.51786 9Z" fill="black"/>
<path d="M15.4821 9C15.4821 5.72816 13.5276 3.50886 10.338 2.98327C10.0241 2.93154 9.80739 3.25128 9.96688 3.51324C10.1733 3.8522 9.7632 4.2269 9.41451 4.01799L6.84727 2.4798C6.47988 2.25967 6.48101 1.75053 6.84938 1.53187L9.32031 0.0651738C9.70152 -0.161099 10.1487 0.245388 9.92731 0.616974C9.77044 0.880323 9.95683 1.211 10.2717 1.25726C14.2242 1.83805 17.25 5.08344 17.25 9C17.25 11.788 16.0714 13.982 13.7143 15.1563C13.5423 15.2597 13.299 15.2567 13.125 15.1563C12.7434 14.9361 12.7596 14.8402 13.125 14.5966C14.5982 13.4773 15.4821 11.3464 15.4821 9Z" fill="black"/>
</svg>
