<svg width="18" height="18" viewBox="0 0 18 18" fill="none" xmlns="http://www.w3.org/2000/svg">
<path d="M7.35254 10.7383C7.03368 11.2524 6.99536 11.9056 7.27441 12.4639L8.72363 15.3633C9.17682 16.2697 10.1038 16.8418 11.1172 16.8418C12.3115 16.8416 13.3613 16.0498 13.6895 14.9014L16.7539 4.17578C16.8125 3.97074 16.8418 3.75818 16.8418 3.54492C16.8417 2.27745 15.8144 1.25 14.5469 1.25C14.3337 1.25001 14.121 1.27932 13.916 1.33789L3.19043 4.40332C2.04193 4.7315 1.25 5.78111 1.25 6.97559C1.25009 7.98872 1.82242 8.91495 2.72852 9.36816L5.62793 10.8174C6.18607 11.0965 6.83842 11.057 7.35254 10.7383ZM7.35254 10.7383L9.96176 8.12908" stroke="black" stroke-width="1.5" stroke-linecap="round"/>
</svg>
