<svg width="24" height="24" viewBox="0 0 24 24" fill="#2D9CDB" xmlns="http://www.w3.org/2000/svg">
<path fill-rule="evenodd" clip-rule="evenodd" d="M24 12C24 18.6274 18.6274 24 12 24C9.82543 24 7.78595 23.4216 6.02703 22.4102L0 24L1.73614 18.2206C0.634407 16.4066 0 14.2774 0 12C0 5.37258 5.37258 0 12 0C18.6274 0 24 5.37258 24 12ZM5.5 14C6.60457 14 7.5 13.1046 7.5 12C7.5 10.8954 6.60457 10 5.5 10C4.39543 10 3.5 10.8954 3.5 12C3.5 13.1046 4.39543 14 5.5 14ZM14 12C14 13.1046 13.1046 14 12 14C10.8954 14 10 13.1046 10 12C10 10.8954 10.8954 10 12 10C13.1046 10 14 10.8954 14 12ZM18.5 14C19.6046 14 20.5 13.1046 20.5 12C20.5 10.8954 19.6046 10 18.5 10C17.3954 10 16.5 10.8954 16.5 12C16.5 13.1046 17.3954 14 18.5 14Z"/>
</svg>
