<svg width="18" height="18" viewBox="0 0 18 18" fill="none" xmlns="http://www.w3.org/2000/svg">
<path d="M5.30833 10.3442C5.30833 10.3442 8.08011 12.3962 9.01374 14.204C9.56201 15.2656 9.16891 16.6299 10.266 17.1031C11.0996 17.4627 11.7585 17.1031 12.1359 16.6571C13.1178 15.4966 11.5355 11.6651 11.5355 11.6651C11.5355 11.6651 14.0057 11.7166 14.8292 11.5965C15.6526 11.4764 16.355 11.2179 16.6304 10.3442C16.8915 9.5158 15.9271 8.4696 15.9271 8.4696C15.9271 8.4696 16.476 7.68524 16.3216 6.99905C16.1672 6.31286 15.6354 5.98693 15.6354 5.98693C15.6354 5.98693 16.1329 5.07002 15.9271 4.4696C15.7212 3.86919 15 3.4696 15 3.4696C15 3.4696 15.361 1.04639 13.6112 0.857685C11.8614 0.668984 11.8511 0.767439 10.7292 0.857685C8.55887 1.03227 5.30833 2.16144 5.30833 2.16144M5.30833 10.3442V2.16144M5.30833 10.3442H2.5C1.94772 10.3442 1.5 9.89649 1.5 9.34421V3.16144C1.5 2.60915 1.94772 2.16144 2.5 2.16144H5.30833" stroke="black" stroke-width="1.5"/>
</svg>
