<svg width="18" height="18" viewBox="0 0 18 18" fill="none" xmlns="http://www.w3.org/2000/svg">
<path d="M5.30833 7.65762C5.30833 7.65762 8.08011 5.60564 9.01374 3.79783C9.56201 2.7362 9.16891 1.37197 10.266 0.898691C11.0996 0.539084 11.7585 0.898691 12.1359 1.34471C13.1178 2.50521 11.5355 6.33672 11.5355 6.33672C11.5355 6.33672 14.0057 6.28525 14.8292 6.40533C15.6526 6.52542 16.355 6.78393 16.6304 7.65762C16.8915 8.48603 15.9271 9.53223 15.9271 9.53223C15.9271 9.53223 16.476 10.3166 16.3216 11.0028C16.1672 11.689 15.6354 12.0149 15.6354 12.0149C15.6354 12.0149 16.1329 12.9318 15.9271 13.5322C15.7212 14.1326 15 14.5322 15 14.5322C15 14.5322 15.361 16.9554 13.6112 17.1441C11.8614 17.3328 11.8511 17.2344 10.7292 17.1441C8.55887 16.9696 5.30833 15.8404 5.30833 15.8404M5.30833 7.65762V15.8404M5.30833 7.65762H2.5C1.94772 7.65762 1.5 8.10534 1.5 8.65762V14.8404C1.5 15.3927 1.94772 15.8404 2.5 15.8404H5.30833" stroke="black
" stroke-width="1.5"/>
</svg>
